<svg xmlns="http://www.w3.org/2000/svg" viewBox="0 0 334.34 82.91"><defs><style>.cls-1{fill:none;stroke:#000;stroke-miterlimit:10;stroke-width:7px;}.cls-2{fill:gray;}</style></defs><g id="Layer_2" data-name="Layer 2"><g id="Layer_1-2" data-name="Layer 1"><path class="cls-1" d="M80.5,41.45c-.86,50.61-76.14,50.6-77,0C4.36-9.15,79.64-9.15,80.5,41.45Z"/><path d="M45.42,38.45H55c2.49-.41,3.64,3.2,1.82,4.64l-22,19.27a2.77,2.77,0,0,1-4.35-3.16l6.62-14.75H27.41c-2.14-1.06-3.79-3.63-1.73-5.5l22-19.27A2.77,2.77,0,0,1,52,22.84Z"/><path d="M130.24,7.33V3.85h6.21V19.28h-6.21V15.77a12.32,12.32,0,0,0-10.8-5.94A10.48,10.48,0,0,0,113,11.51a5.73,5.73,0,0,0-2.23,4.86A5.45,5.45,0,0,0,112.91,21a18.6,18.6,0,0,0,6.47,2.7l6,1.58a23.53,23.53,0,0,1,8.76,4,11.9,11.9,0,0,1,4,5.3,19.75,19.75,0,0,1,.93,6.24q0,6.93-4.32,11t-11.58,4a18.44,18.44,0,0,1-12.59-5.06V55h-6.34V36.49h6.34V41q4.56,8.37,11.88,8.37a9.37,9.37,0,0,0,6.65-2.21,8.09,8.09,0,0,0,2.36-6.23q0-5.46-7.69-7.59l-6.35-1.79q-6.84-2-10.12-5.3A12.06,12.06,0,0,1,104,17.42Q104,10.7,108,7t11-3.7A18.33,18.33,0,0,1,130.24,7.33Z"/><path d="M184.3,19.85A15.29,15.29,0,0,1,180,31.12q-4.29,4.32-14.51,4.39h-6.69V48.67h6.62V55H144.77V48.67h6.35V10.5h-6.35V4.16h18.94a36.33,36.33,0,0,1,12.16,1.65,11.74,11.74,0,0,1,6.47,5.05A18,18,0,0,1,184.3,19.85Zm-7.8-.17c0-3.17-.94-5.49-2.8-7s-5.07-2.21-9.59-2.21h-5.3V29.37h4.76a26.4,26.4,0,0,0,7.49-.86,7.13,7.13,0,0,0,4.12-3A11,11,0,0,0,176.5,19.68Z"/><path d="M217.22,10.3,231,48.67h5.67V55h-20V48.67h6.65l-3.95-11.54H200.85L196.9,48.67h6.45V55H183.16V48.67h6.15L203,10.3H196.9V4.16h26.43V10.3Zm-6.95,0H210l-7.19,20.86h14.45Z"/><path d="M280.28,17.49a12.45,12.45,0,0,1-2.76,8.22,14.29,14.29,0,0,1-7.73,4.57l9,18.39H285V55h-11.4L262.33,31.33h-7.12V48.67h6.48V55H240.62V48.67h6.89V10.5h-6.89V4.16h21.13q9.83,0,14.18,3.2T280.28,17.49Zm-7.93-.14a6,6,0,0,0-2.23-5.19q-2.22-1.66-7.05-1.66h-7.86V25h7.39c3.3,0,5.76-.58,7.35-1.72S272.35,20.12,272.35,17.35Z"/><path d="M303.18,10.5V48.67h5.87V55H289.14V48.67h6.35V10.5h-6.35V4.16h20.59V10.5Zm25.28,0L312.7,28.19l16.2,20.48h5.44V55H313.68V48.67h5.6L304,28.42,319.75,10.5h-5.87V4.16h20V10.5Z"/><path class="cls-2" d="M116.41,73.73H106.34a4.24,4.24,0,0,0,1.34,2.73,4,4,0,0,0,2.74,1,5,5,0,0,0,2.21-.49,4.23,4.23,0,0,0,1.7-1.51l2.08.94a6.28,6.28,0,0,1-2.57,2.31,7.81,7.81,0,0,1-3.47.78,7.21,7.21,0,0,1-3.46-.81,5.85,5.85,0,0,1-2.34-2.26,6.43,6.43,0,0,1-.85-3.27,6.5,6.5,0,0,1,.83-3.26,6,6,0,0,1,2.27-2.27,6.79,6.79,0,0,1,6.49,0,5.86,5.86,0,0,1,2.22,2.4A8.43,8.43,0,0,1,116.41,73.73Zm-6.36-5a3.41,3.41,0,0,0-2.35.9A4.13,4.13,0,0,0,106.41,72h7.52a4.22,4.22,0,0,0-1.4-2.37A3.77,3.77,0,0,0,110.05,68.77Z"/><path class="cls-2" d="M130.34,71.06v6h2v2.1H128V71.21a3,3,0,0,0-.32-1.63,1.22,1.22,0,0,0-1.07-.49A6,6,0,0,0,123,70.65V77h2.07v2.1h-6.52V77h2.11v-7.8h-2.11V67.13H123v1.45A7.11,7.11,0,0,1,127.19,67a2.84,2.84,0,0,1,2.38,1A5.08,5.08,0,0,1,130.34,71.06Z"/><path class="cls-2" d="M137.86,69.24l2.59,6.81L143,69.24h-1.67V67.13h5.77v2.11H145.3l-3.83,10.11h-2.14l-3.91-10.11H133.3V67.13h6.12v2.11Z"/><path class="cls-2" d="M154.86,77v2.1h-6.07V77h1.87v-7.8h-1.87V67.13H153V77Zm-1.69-14a1.41,1.41,0,0,1-.43,1,1.4,1.4,0,0,1-2,0,1.45,1.45,0,0,1,0-2,1.36,1.36,0,0,1,1-.42,1.4,1.4,0,0,1,1.43,1.43Z"/><path class="cls-2" d="M161.34,74.32V77H164v2.1h-7.37V77H159v-7.8h-2.41V67.13h4.29v2.72a4.66,4.66,0,0,1,1.78-2.25,6.13,6.13,0,0,1,3.06-.63h.54v2.39h-.51a6.18,6.18,0,0,0-2.86.5,2.42,2.42,0,0,0-1.24,1.52A10.55,10.55,0,0,0,161.34,74.32Z"/><path class="cls-2" d="M179.49,73.15a6.36,6.36,0,0,1-.83,3.2,6.21,6.21,0,0,1-5.47,3.14,6.41,6.41,0,0,1-3.26-.84,5.92,5.92,0,0,1-2.25-2.3,6.45,6.45,0,0,1-.81-3.2,6.55,6.55,0,0,1,.81-3.27,5.79,5.79,0,0,1,2.24-2.26,6.55,6.55,0,0,1,3.27-.81,6.08,6.08,0,0,1,3.21.86,6.29,6.29,0,0,1,3.09,5.48Zm-6.3,4a3.61,3.61,0,0,0,1.93-.55,3.85,3.85,0,0,0,1.38-1.48,4.37,4.37,0,0,0,0-4,4,4,0,0,0-1.38-1.49,3.61,3.61,0,0,0-3.88,0,3.91,3.91,0,0,0-1.39,1.49,4.29,4.29,0,0,0,0,4,3.86,3.86,0,0,0,1.4,1.49A3.67,3.67,0,0,0,173.19,77.2Z"/><path class="cls-2" d="M193.42,71.06v6h2v2.1h-4.38V71.21a3.15,3.15,0,0,0-.32-1.63,1.22,1.22,0,0,0-1.07-.49,6,6,0,0,0-3.55,1.56V77h2.07v2.1h-6.51V77h2.11v-7.8h-2.11V67.13h4.44v1.45A7.13,7.13,0,0,1,190.26,67a2.85,2.85,0,0,1,2.39,1A5.08,5.08,0,0,1,193.42,71.06Z"/><path class="cls-2" d="M199.27,77v-7.8h-2V67.13h4.38v1.52A6.71,6.71,0,0,1,205.78,67a2.84,2.84,0,0,1,2.86,1.87A7.07,7.07,0,0,1,213,67a3.16,3.16,0,0,1,2.32.85,3.6,3.6,0,0,1,.86,2.63V77h2.1v2.1h-4.44V71.53a8.59,8.59,0,0,0-.08-1.28,1.6,1.6,0,0,0-.42-.84,1.45,1.45,0,0,0-1.07-.34,3.83,3.83,0,0,0-1.52.39,8.74,8.74,0,0,0-1.83,1.16V77h2v2.1h-4.4V71.23a3,3,0,0,0-.35-1.66,1.32,1.32,0,0,0-1.15-.5,6.49,6.49,0,0,0-3.42,1.55V77h2.11v2.1h-6.63V77Z"/><path class="cls-2" d="M232.91,73.73H222.84a4.2,4.2,0,0,0,1.34,2.73,3.94,3.94,0,0,0,2.74,1,5,5,0,0,0,2.21-.49,4.37,4.37,0,0,0,1.7-1.51l2.08.94a6.37,6.37,0,0,1-2.58,2.31,7.78,7.78,0,0,1-3.47.78,7.2,7.2,0,0,1-3.45-.81,5.81,5.81,0,0,1-2.35-2.26,6.42,6.42,0,0,1-.84-3.27,6.5,6.5,0,0,1,.83-3.26,6,6,0,0,1,2.27-2.27,6.79,6.79,0,0,1,6.49,0,5.86,5.86,0,0,1,2.22,2.4A8.57,8.57,0,0,1,232.91,73.73Zm-6.37-5a3.4,3.4,0,0,0-2.34.9A4.13,4.13,0,0,0,222.91,72h7.52A4.18,4.18,0,0,0,229,69.67,3.73,3.73,0,0,0,226.54,68.77Z"/><path class="cls-2" d="M246.84,71.06v6h2v2.1h-4.38V71.21a3,3,0,0,0-.33-1.63,1.18,1.18,0,0,0-1.06-.49,6,6,0,0,0-3.55,1.56V77h2.07v2.1h-6.51V77h2.11v-7.8h-2.11V67.13h4.44v1.45A7.13,7.13,0,0,1,243.68,67a2.85,2.85,0,0,1,2.39,1A5.08,5.08,0,0,1,246.84,71.06Z"/><path class="cls-2" d="M256.9,67.13v2.11h-2.19v6.3a2.47,2.47,0,0,0,.21,1.27.82.82,0,0,0,.72.3,4,4,0,0,0,1.26-.22V79a6.79,6.79,0,0,1-1.77.32A2.71,2.71,0,0,1,253,78.6a4,4,0,0,1-.65-2.57V69.24h-1.57V67.13h1.57V65.31l2.37-2.16v4Z"/></g></g></svg>