<?xml version="1.0" encoding="UTF-8"?><svg id="Layer_2" xmlns="http://www.w3.org/2000/svg" viewBox="0 0 615.18 192.06"><defs><style>.cls-1{fill:#fff;}</style></defs><g id="Layer_1-2"><g id="art"><path class="cls-1" d="m453.77,36.01c-67.04,1.14-67.03,100.86,0,102,67.04-1.14,67.03-100.86,0-102Zm0,76.74c-31.84-.13-31.83-51.38,0-51.51,31.84.13,31.82,51.41,0,51.54v-.03Z"/><path class="cls-1" d="m564.9,36.01c-67.04,1.14-67.03,100.86,0,102,67.04-1.14,67.03-100.86,0-102Zm0,76.74c-31.99-.56-31.97-50.95,0-51.51,31.83.13,31.83,51.41,0,51.54v-.03Z"/><rect class="cls-1" x="120.86" y="42.06" width="26.64" height="90.94"/><path class="cls-1" d="m134.18,0c-20.44-.47-20.32,30.53,0,30.02,20.31.52,20.49-30.54,0-30.02Z"/><rect class="cls-1" x="289.08" y="42.06" width="26.64" height="90.94"/><path class="cls-1" d="m302.4,0c-20.44-.47-20.32,30.53,0,30.02,20.31.49,20.58-30.52,0-30.02Z"/><path class="cls-1" d="m371.45,100.85v-38.54h20.6v-20.25h-20.6v-22.92h-25.31l-.09,22.92h-14v20.25h12.75c-.28,37.52-7.16,86.76,48.14,71.35v-21.44c-9.46,3.37-21.95,1.06-21.49-11.37Z"/><path class="cls-1" d="m248.63,49.01c-20.98-18.79-53.22-17.01-72.02,3.97-38.1,41.55,13.5,106.35,62.5,78.75v11.28h0c-.06,12.45-10.09,22.56-22.54,22.71-12.65.22-23.12-10.06-23.13-22.71h0v-.85h-27.45c-.01,27.57,22.34,49.92,49.91,49.9h0c26.87-.01,48.9-21.33,49.79-48.19h.09V42.71c-6.29-.02-12.37,2.22-17.15,6.3Zm-34,63.74c-31.84-.13-31.83-51.38,0-51.51,31.83.13,31.8,51.41,0,51.54v-.03Z"/><path class="cls-1" d="m101.9,1.2h-26.67v41C15.76,11.23-31.8,98.87,26.58,131.84c32.63,18.73,75.76-6.84,75.32-44.32h0V1.2Zm-51,111.58c-31.83-.13-31.84-51.39,0-51.51,32,.56,31.96,50.95,0,51.51Z"/></g></g></svg>